<?xml version="1.0" standalone="no"?>
<!DOCTYPE svg PUBLIC "-//W3C//DTD SVG 20010904//EN"
 "http://www.w3.org/TR/2001/REC-SVG-20010904/DTD/svg10.dtd">
<svg version="1.0" xmlns="http://www.w3.org/2000/svg"
 width="512.000000pt" height="512.000000pt" viewBox="0 0 512.000000 512.000000"
 preserveAspectRatio="xMidYMid meet">
<metadata>
Created by potrace 1.14, written by Peter Selinger 2001-2017
</metadata>
<g transform="translate(0.000000,512.000000) scale(0.100000,-0.100000)"
fill="#000000" stroke="none">
<path d="M3610 4600 c-7 -5 -18 -6 -25 -4 -6 3 -25 -1 -41 -7 -16 -7 -32 -12
-36 -11 -5 1 -8 -2 -8 -8 0 -5 -5 -10 -11 -10 -16 0 -79 -57 -72 -64 4 -3 2
-6 -3 -6 -6 0 -17 -17 -26 -37 -32 -76 -130 -338 -131 -350 0 -7 -4 -13 -9
-13 -4 0 -8 -11 -8 -25 0 -14 -5 -25 -12 -25 -6 0 -9 -3 -6 -6 5 -5 -3 -29
-47 -139 -4 -11 -9 -24 -11 -30 -1 -5 -43 -117 -93 -247 -50 -130 -91 -242
-91 -247 0 -6 -4 -11 -9 -11 -5 0 -8 -8 -7 -17 2 -10 -4 -31 -13 -48 -9 -16
-23 -48 -30 -70 -8 -22 -18 -51 -24 -65 -6 -14 -11 -29 -13 -35 -7 -25 -95
-252 -104 -267 -6 -10 -10 -23 -10 -30 -1 -7 -9 -31 -20 -53 -10 -22 -16 -43
-14 -47 3 -5 1 -8 -4 -8 -5 0 -9 -6 -9 -12 -1 -7 -14 -47 -31 -88 -16 -41 -46
-120 -66 -175 -20 -55 -41 -109 -46 -120 -10 -25 -22 -59 -20 -63 0 -1 -6 -15
-14 -31 -9 -16 -12 -31 -9 -35 4 -3 1 -6 -5 -6 -7 0 -12 -6 -12 -14 0 -7 -8
-31 -17 -52 -9 -22 -18 -46 -19 -54 -2 -8 -7 -23 -13 -35 -6 -11 -49 -123 -96
-250 -47 -126 -90 -239 -96 -250 -6 -12 -11 -27 -13 -35 -1 -8 -10 -33 -20
-55 -10 -22 -19 -47 -21 -55 -10 -40 -50 -136 -60 -142 -5 -4 -7 -8 -3 -8 6 0
-1 -19 -59 -170 -14 -36 -25 -71 -26 -77 0 -7 -5 -13 -10 -13 -6 0 -8 -3 -4
-6 3 -4 0 -19 -9 -35 -8 -16 -15 -32 -15 -36 -1 -5 -6 -19 -12 -33 -25 -62
-15 -230 14 -230 5 0 9 -6 9 -13 0 -19 59 -71 106 -93 46 -22 195 -27 202 -6
2 7 7 10 12 7 4 -3 13 2 20 10 7 8 19 15 27 15 8 0 11 5 8 10 -3 6 -1 10 6 10
15 0 34 25 59 77 21 45 42 93 45 106 2 4 4 10 5 15 1 4 2 10 1 15 0 4 4 7 10
7 5 0 8 3 6 8 -3 4 3 24 13 45 10 21 22 51 25 68 4 17 13 42 21 57 8 15 14 31
14 35 0 5 6 23 14 40 16 38 34 84 76 197 17 47 41 110 54 140 l22 55 777 1
c539 0 780 -3 785 -10 5 -6 18 -42 31 -81 12 -38 27 -79 31 -90 5 -11 16 -42
25 -70 10 -27 20 -57 23 -65 3 -8 6 -17 7 -20 1 -3 4 -12 8 -20 3 -8 21 -62
41 -120 84 -249 116 -331 135 -356 30 -38 89 -79 133 -93 44 -15 127 -12 147
3 8 6 15 10 15 8 3 -10 56 21 86 50 47 43 73 100 78 169 3 47 -3 76 -38 175
-22 65 -53 155 -68 199 -15 44 -31 83 -37 87 -5 4 -7 8 -3 8 3 0 -12 51 -34
112 -21 62 -41 120 -43 128 -2 8 -4 16 -5 18 -2 1 -4 7 -5 12 -1 6 -4 13 -5
18 -1 4 -2 10 -1 15 0 4 -3 7 -7 7 -5 0 -9 6 -9 13 0 6 -15 53 -33 102 -18 50
-35 102 -37 118 -3 15 -10 27 -15 27 -5 0 -7 4 -3 9 3 5 1 12 -4 16 -6 3 -8
12 -4 20 3 8 0 15 -6 15 -6 0 -11 11 -11 23 0 13 -3 27 -7 30 -6 6 -47 119
-58 157 -2 8 -29 87 -60 175 -31 88 -57 165 -58 170 -2 6 -5 15 -8 20 -3 6
-16 44 -29 85 -14 41 -27 77 -30 80 -3 3 -6 12 -8 20 -3 14 -56 174 -70 210
-3 8 -6 17 -7 20 0 3 -9 30 -20 60 -11 30 -18 58 -17 63 1 4 -2 7 -8 7 -6 0
-9 3 -9 8 2 9 6 -3 -57 177 -30 88 -56 165 -58 170 -2 6 -8 22 -14 38 -7 15
-14 38 -16 50 -3 12 -16 50 -30 85 -13 34 -22 62 -20 62 2 0 -2 13 -10 29 -9
16 -12 31 -9 35 4 3 2 6 -4 6 -5 0 -10 6 -10 13 -1 13 -58 180 -73 212 -6 11
-12 29 -13 40 -2 11 -9 31 -14 45 -6 14 -23 63 -38 110 -15 47 -31 90 -34 95
-3 6 -6 15 -8 20 -3 13 -87 253 -101 286 -15 38 -69 97 -106 116 -45 24 -122
42 -136 33z m40 -1120 c13 -41 28 -81 33 -87 5 -7 6 -13 1 -13 -4 0 -3 -5 4
-12 7 -7 12 -22 12 -34 0 -13 5 -26 10 -29 6 -3 10 -14 10 -23 0 -9 7 -30 15
-46 9 -16 17 -37 19 -45 2 -9 6 -23 9 -31 3 -8 20 -58 37 -110 17 -52 34 -102
37 -110 4 -8 7 -17 8 -20 5 -20 29 -87 34 -95 3 -5 6 -12 7 -15 2 -13 33 -108
45 -135 6 -16 13 -34 14 -40 4 -18 33 -99 54 -152 11 -29 18 -53 15 -53 -3 0
-2 -6 3 -12 4 -7 8 -17 10 -23 2 -10 48 -137 60 -165 3 -8 7 -22 8 -30 2 -8
15 -49 30 -90 36 -102 37 -105 34 -105 -1 0 3 -10 10 -22 10 -20 9 -23 -6 -24
-25 -1 -373 -1 -403 0 -14 1 -43 0 -65 -1 -22 -2 -43 1 -47 7 -5 7 -8 6 -8 -1
0 -6 -23 -9 -62 -7 -69 4 -65 4 -123 0 -22 -1 -43 2 -47 8 -5 7 -8 6 -8 -1 0
-6 -23 -9 -62 -7 -73 4 -70 4 -125 0 -26 -2 -43 1 -43 7 0 7 -3 8 -8 1 -4 -5
-44 -10 -89 -10 -94 0 -90 -8 -48 97 13 31 20 59 17 62 -3 3 0 6 7 6 7 0 10 4
7 8 -2 4 2 21 9 37 19 41 79 199 76 203 -1 1 6 16 14 32 9 17 12 30 8 30 -5 0
-3 4 2 8 6 4 18 32 29 62 10 30 24 69 31 85 19 44 60 149 60 155 1 5 43 117
66 175 7 17 13 33 14 38 2 4 4 9 5 12 1 3 3 8 5 13 1 4 7 21 14 37 6 17 23 62
38 100 14 39 29 74 34 79 4 5 5 15 2 22 -3 8 0 14 7 14 7 0 10 7 7 15 -4 8 -2
17 2 19 5 3 23 46 41 96 18 50 36 93 41 96 4 2 6 11 2 19 -3 8 0 15 6 15 6 0
10 3 9 8 -1 4 4 26 12 49 11 38 15 41 25 25 6 -9 22 -51 35 -92z"/>
<path d="M828 2785 c-2 -2 -35 -6 -73 -9 -39 -4 -82 -9 -95 -12 -14 -3 -38 -8
-55 -11 -16 -3 -38 -9 -47 -14 -10 -5 -18 -8 -18 -5 0 6 -51 -14 -122 -47 -27
-12 -48 -25 -48 -29 0 -5 -7 -8 -16 -8 -18 0 -82 -62 -103 -100 -22 -39 -25
-118 -5 -169 18 -46 90 -125 106 -115 4 3 8 1 8 -5 0 -6 7 -8 15 -5 8 4 15 2
15 -3 0 -5 24 -9 53 -8 40 0 70 10 132 42 44 22 96 44 115 47 19 3 49 9 65 13
37 8 287 8 335 0 50 -8 91 -22 131 -42 40 -21 89 -65 89 -81 0 -5 8 -19 18
-30 17 -19 22 -36 25 -81 0 -13 5 -23 10 -23 4 0 5 -5 2 -11 -4 -6 -21 -8 -41
-5 -186 31 -231 35 -399 31 -179 -4 -221 -8 -297 -30 -27 -8 -48 -12 -48 -9 0
2 -13 -2 -30 -11 -16 -8 -33 -16 -37 -16 -5 -1 -37 -14 -73 -31 -36 -16 -67
-28 -69 -28 -2 1 -7 -2 -10 -7 -3 -4 -31 -27 -61 -50 -71 -53 -120 -99 -120
-112 0 -6 -4 -11 -9 -11 -5 0 -20 -17 -32 -37 -13 -21 -26 -40 -29 -43 -25
-21 -86 -192 -97 -270 -10 -73 -7 -241 6 -302 7 -32 13 -61 13 -65 5 -36 84
-198 113 -229 5 -7 26 -32 44 -56 19 -24 55 -60 79 -79 25 -18 53 -42 63 -52
11 -9 19 -15 19 -12 0 3 18 -6 40 -20 22 -14 46 -25 54 -25 8 0 17 -4 20 -9 3
-5 16 -11 28 -14 13 -3 41 -11 63 -17 64 -17 77 -20 130 -25 28 -3 58 -8 69
-11 12 -4 16 -2 12 5 -5 8 0 8 17 2 14 -6 27 -8 29 -5 4 4 65 11 151 17 15 1
27 4 27 7 0 3 10 7 23 8 35 3 51 7 62 13 6 4 28 12 50 18 22 7 49 16 60 20 91
38 111 47 117 56 4 5 8 6 8 2 0 -5 10 -1 22 7 29 20 52 21 44 1 -3 -8 -2 -15
2 -15 4 0 18 -18 31 -39 22 -35 77 -78 94 -73 4 1 7 -2 7 -6 0 -4 10 -8 23 -9
12 0 33 -2 47 -3 14 -1 32 0 40 3 8 2 27 7 43 12 15 4 27 11 27 16 0 5 6 9 13
9 21 1 78 87 84 127 7 49 6 1344 -1 1403 -3 25 -6 55 -6 67 0 12 -5 25 -10 28
-6 4 -8 10 -5 15 6 10 -27 109 -57 170 -19 37 -70 113 -106 155 -28 32 -179
145 -194 145 -3 0 -27 10 -54 22 -27 12 -53 23 -59 23 -5 1 -12 3 -15 4 -3 2
-12 4 -20 6 -8 2 -25 6 -37 9 -80 20 -153 28 -280 31 -62 1 -114 1 -115 0z
m312 -1119 c39 -9 72 -15 105 -21 17 -2 50 -11 75 -18 l45 -13 1 -213 0 -212
-30 -16 c-17 -9 -33 -19 -36 -22 -10 -12 -65 -45 -80 -48 -8 -1 -16 -7 -18
-12 -2 -6 -10 -11 -17 -11 -8 0 -20 -6 -27 -13 -7 -7 -17 -15 -23 -16 -24 -8
-42 -15 -81 -32 -55 -24 -175 -57 -196 -53 -10 1 -18 -1 -18 -5 0 -7 -90 -8
-105 0 -5 3 -22 5 -37 4 -16 0 -28 2 -28 5 0 4 -6 7 -12 7 -47 0 -168 95 -184
145 -3 10 -10 18 -15 18 -6 0 -7 5 -4 10 4 6 2 16 -3 23 -5 7 -8 20 -7 30 2 9
-1 17 -6 17 -5 0 -7 42 -6 93 3 127 31 184 131 272 16 14 34 25 40 25 6 0 24
7 39 15 37 19 98 35 148 39 21 2 41 5 44 8 7 6 272 1 305 -6z"/>
</g>
</svg>
